<?xml version="1.0" encoding="utf-8"?>
<!-- Generator: Adobe Illustrator 21.0.0, SVG Export Plug-In . SVG Version: 6.00 Build 0)  -->
<svg version="1.1" id="Layer_1" xmlns="http://www.w3.org/2000/svg" xmlns:xlink="http://www.w3.org/1999/xlink" x="0px" y="0px"
	 viewBox="0 0 242 52" style="enable-background:new 0 0 242 52;" xml:space="preserve">
<path d="M22.2,35.9c1.3-0.4,2.7-0.9,4.1-1.5c-0.2,0.2-0.4,0.4-0.4,0.4c-2.9,2.7-5.3,5-9,5.8c-1.7,0.3-2.4,0.2-2.6,0c0,0,0-0.1,0-0.1
	c0-0.1,0.1-0.3,0.3-0.6C16,38,18.9,37,22.2,35.9z M61.9,29.3c0,3.3,0,12.4,0,12.4l0,5c0,0-22.6-6.6-25-7.3c-5.1,2.4-6,2.8-6.2,2.9
	c0.1,0,0.1,0,0.1,0l-1.5,0.7c-9.2,4.3-13.4,6.3-19,7.3c-6.1,0.9-8.7-1-9.7-2.8C0.4,46.8,0,45.9,0,44.8c0-1.3,0.5-2.8,1.8-4.7
	c0.5-0.6,2.8-3.3,4.5-4.6c1.9-3,3-4.1,4-5.2c3.5-3.7,9.7-8.4,22.7-11.2c1.5-0.3,4.6-0.9,7-0.9c1.8-1.5,14.1-12,14.1-12l5.4-4.6
	c0,0,1.1,9.9,1.4,12.6c5.9-1.1,53.1-9.8,53.1-9.8S65.5,27.5,61.9,29.3z M86.9,13.1c-3.3,0.6-29.2,5.4-29.2,5.4s-0.9-8.7-1-9.6
	c-0.2,0.2-15.2,12.9-15.2,12.9L41.4,22l-0.1,0c-0.8-0.2-3.6,0-7.4,0.8C22,25.3,16.7,29.2,12.8,33c1.4-0.3,11.9-2.3,11.9-2.3
	c1.2-1.4,2.7-2.4,5.4-3.1c1.2-0.3,2.8-0.5,3.1,0c0.1,0.2,0,0.5-0.3,0.9c-1.2,1.6-4.8,2.4-9.1,3.6c-6.9,2-14.5,4.4-19,10.3
	C3.5,44,3.6,45,3.9,45.5c0.6,1.1,2.8,1.5,5.9,1c5.3-0.9,9.2-2.9,19.5-7.7c0,0,7.4-3.4,7.4-3.4s20.9,6.1,21.5,6.3
	c0-0.6,0-14.8,0-14.8S83.9,14.6,86.9,13.1z M76.4,36.9c-0.5,0.2-1.2,0.8-1.3,1.5c0,0.3,0.2,0.4,0.5,0.6l0.1,0c1,0.5,5.5,0.1,7.4-1.8
	c0.5-0.6,0.7-1.1,0.8-1.6c-1.1,0.3-2.3,0.4-3.4,0.5C79.1,36.3,77.6,36.5,76.4,36.9z M172.7,32.2c-0.1-0.1-0.3-0.3-0.3-0.3
	c-0.8-0.5-4.7-0.4-6,0.1c-0.2,0.1-0.7,0.3-0.7,0.6c0,0.1,0.2,0.2,0.2,0.2c1.4,0.4,3,0.6,4.5,0.8c2.2,0.2,4.4,0.5,6.4,1.6
	c0.3-0.6,0.7-1.3,1-2.1c-0.7,0-5,0-5,0S172.7,32.3,172.7,32.2z M188.4,36.8c-0.9,0.2-2,0.6-2.4,1.6c0,0,0,0.1,0,0.1
	c0,0.2,0.2,0.4,0.3,0.5c1.2,0.4,2.7,0.4,4.8-0.1c1.5-0.3,3.2-1.5,3.7-3c-1.1,0.3-2.3,0.4-3.5,0.5C190.4,36.5,189.4,36.6,188.4,36.8z
	 M110.7,32.6c-0.1-0.1-0.5-0.5-0.5-0.5c-2.1-1.3-5.5-0.5-7.5,1c-1.4,1.3-2.1,2.5-2.1,3.6c0,0.2,0,0.4,0.1,0.7c0.1,0.7,0.6,1,0.9,1.2
	c1.6,0.8,4.9,0.4,6.7-0.9c1.5-1,2.8-2.6,2.8-3.9c0-0.3-0.1-0.5-0.2-0.7C110.9,33.1,110.7,32.6,110.7,32.6z M233.1,32.4l-0.1,0.9
	c-0.1,0.5-0.1,1.1-0.2,1.6l0,0.3l-0.3,0c-0.4,0-0.8,0-1.1,0c0.2,0.5,0.5,1,0.4,1.9c-0.6,4.7-5.5,6-9.7,6.7c-6.1,1-10.9,0.6-14.2-1.3
	l0,0l0,0c-0.6-0.4-1.4-1.1-1.9-1.9c-0.1,0.2-0.2,0.4-0.3,0.6c-0.4,0.8-0.8,1.7-1.3,2.5l-0.1,0.2h-0.2L191,44c0,0-0.5,0-0.5,0
	l0.1-0.3c-0.3,0.1-0.7,0.2-1,0.2c-1.1,0.3-2.2,0.5-3.4,0.5c-1.8,0-2.6-0.1-3.3-0.2c-0.9-0.1-1.7-0.2-4.6,0c-1.3,0.1-3.2-0.5-4.2-1.2
	c-4.7,1.5-12.3,1.9-15.7,0.6l-2-0.8c-4.7,1.8-10.7,2-15,0.7l-0.1,0.2l-0.1,0.2H141l-23.3,0l-8.2,0h-0.3l-0.1-0.3
	c-1.5,0.4-3.3,0.7-4.9,0.7c-0.1,0-3,0-4.4-0.8c-0.8,1.5-1.6,3.1-2.4,4.9l-0.1,0.2h-0.3H86.9h-0.6l0.2-0.6c0.3-0.7,0.6-1.4,1-2.1
	c0.3-0.7,0.7-1.5,1-2.2l-1.9,0c-1.7,0-3.5,0-6.2,0c0,0-0.4,0-0.4,0l0-0.4v0l-0.1,0c-0.7,0.2-1.4,0.3-2.1,0.4c-2.9,0.3-9,1-11.2-2.9
	l0,0l0,0c-0.7-1.8-0.2-3.7,1.4-5.5c-0.2,0-0.4,0-0.4,0l0.4-0.6l0.2-0.4c1.5-2.3,3.5-5.4,6.5-6.5c5.2-2.3,10.1-1.9,14.6-1.2
	c0.8,0.2,1.2,0.3,1.7,0.5c0.5-0.9,0.9-1.9,1.4-2.8c0.3-0.6,0.6-1.3,0.9-1.9l0.1-0.2h0.3l10.4,0h0.6l-0.2,0.6
	c-0.3,0.8-0.7,1.6-1.1,2.3c-0.2,0.5-0.5,1-0.7,1.4c0.3,0,0.7,0,1,0c1.6,0,3.2,0.1,4.7-0.1c2.7-0.4,6.4-0.2,8.3,0.9l2.5-5l0.1-0.2
	h0.3l10.3,0l0.7,0l-0.3,0.6c-0.5,1.1-1.4,3-1.9,3.9c0.7,0,1.4,0,2.2,0c2.1,0,4.3,0.1,6.1-0.3l0,0l0,0c3.7-0.2,6.3,0.3,7.9,1.6
	c4.2-1.6,9.5-2,14.1-1.1c0.9,0.2,1.9,0.5,2.9,1.1c5-2.2,11-1.7,14.2-1.2l2.7,0c0.6-1.1,1.2-2.2,1.6-3.1l0.1-0.2h0.3h7.4h2.8h0.6
	L191,24c-0.2,0.5-0.4,0.9-0.6,1.4c-0.2,0.5-0.4,0.9-0.6,1.4c0.2,0,0.4,0,0.6-0.1c0.9-0.1,1.7-0.2,2.7-0.2c2.5,0,5.4,0,8.1,0.6
	l0.1-0.1l0.1-0.2l0.3,0L212,27c2.2-0.6,3.7-0.5,5-0.3c0.8,0.1,1.5,0.1,2.3,0.1c4-0.3,9.7-0.3,12.2,1.8
	C232.7,29.3,233.3,30.7,233.1,32.4z M119,27.7h6.4l1.7-3.4l-0.4,0l-6.1,0L119,27.7z M118.5,41.8l6.1-13l-6,0c0,0-0.7,1.3-1,1.9
	c-0.5-0.9-1.5-1.6-3.3-1.9c-3.1-0.6-7.4-0.4-10.8,1.5c0.2-0.5,0.8-1.6,0.8-1.6s-4.2,0-4.9,0c0.2-0.5,2-4.2,2-4.2l-0.4,0l-0.3,0
	l-5.8,0l-0.1,0.1c0,0-2.5,5.2-2.8,5.8c-0.2-0.2-0.5-0.6-0.5-0.6c-1.7-1.2-4.9-1.8-9.7-1.5c-4.7,0.3-8,1.7-9.7,4.4l-0.3,0.4l6.3,0
	l0.1-0.1c0.7-0.9,1.7-1.4,3.2-1.6c1.4-0.2,3.1-0.3,4.1,0.4c0.3,0.2,0.3,0.3,0.2,0.5c-0.2,0.5-0.8,0.8-1.3,0.9
	c-1.4,0.2-3,0.3-4.5,0.4c-3.5,0.2-7,0.4-9.7,2.6c-1.4,1.2-1.9,2.5-1.4,3.7c0.6,1.1,1.6,1.4,2.6,1.6l0.3,0.1c3.6,0.5,7.3,0,10.5-1.4
	c-0.1,0.4-0.2,1.3-0.2,1.3l0.3,0c0,0,8.9,0,9.7,0c-0.3,0.6-2.1,4.9-2.1,4.9l0.4,0h6l2.9-6.2c0,0,0-0.1,0.1-0.2
	c1.1,1.3,2.4,1.6,3.6,1.8l0.4,0.1c3.3,0.3,8.6-1.6,10.3-2.3c-0.3,0.6-0.9,2-0.9,2L118.5,41.8z M230.8,31.1c-0.5-1-1.5-1.5-2.5-1.8
	c-3.7-0.9-8.3-0.8-12,0.1c0,0,0.4-0.8,0.4-0.8l-0.4,0c-2.9-0.2-5.8,0.6-8.3,2.2c0.3-0.6,0.9-1.8,0.9-1.8h-6.2c0,0-0.3,0.6-0.5,0.9
	c-0.3-0.2-0.6-0.4-1.2-0.5c-3.5-0.9-7.7-1-11.4-0.2c0-0.1,0-0.2,0-0.2h-1.6c0,0-1.1,0-1.8,0c0.3-0.5,0.9-1.9,0.9-1.9l0.7-1.4l-0.4,0
	l-6,0l-0.1,0.1c0,0-1.5,3-1.7,3.2c-0.3,0-2.9,0-2.9,0l-0.2,0.4c0,0,0,0.1-0.1,0.2c-0.2-0.2-0.5-0.4-1.2-0.5
	c-4.7-1.2-10.1-0.5-14.1,1.8c-0.9-0.8-2.2-1.5-2.9-1.6c-5-1-10.3-0.4-14.3,1.6c-0.5-0.8-1.4-1.3-2.7-1.7c-3.1-0.5-7.1-0.8-10.9,1.4
	c0.1-0.2,0.7-1.5,0.7-1.5l-0.4,0l-5.3,0l-6.1,12.9l5.9,0L129,34c1-1.4,2.5-1.8,4-2.2c0,0,0.4,0,0.4,0c1.4-0.1,3.2-0.3,4.1,0.8
	c0,0.1,0,0.1,0,0.2c0,0.1,0,0.3-0.1,0.5c0,0-3.9,8.2-3.9,8.2l-0.2,0.4h6.4c0,0,0.4-0.8,0.6-1.1c0.8,0.5,2,1,3,1.2
	c4.4,0.8,9.1,0.3,13.2-1.4c0.7,0.4,1.5,0.8,2.1,1.1c4.3,1.5,11.3,1,15.9-1.2c0.1,0.3,0.3,0.6,0.6,0.9c1.5,1.1,2.9,1,4.2,0.9
	c0.7-0.1,1.4-0.1,2.1,0c5.4,0.8,8.2-0.1,11.3-1.6c0,0.3-0.1,0.7-0.1,0.7l-0.1,0.7l0.3,0l9.7,0l3.5-6.9c1.1-1.8,3.1-2.2,4.9-2.4
	c-0.3,0.4-0.5,0.9-0.5,1.3c0,0,0,0.1,0,0.1c0,0.6,0.2,1.1,0.7,1.5c1.9,1.2,4.2,1.4,6.4,1.6c1.4,0.1,2.9,0.3,4.3,0.7
	c0.1,0.1,0.4,0.2,0.4,0.3c0,0,0,0,0,0c-0.1,0.6-1.2,1-3.1,1.2l-0.5,0c-1.7,0.1-3.4,0.1-4.6-0.8c-0.1-0.1-0.1-0.3-0.1-0.6l0.1-0.5
	l-0.3,0h-6.1l-0.1,0.1c-0.3,0.4-0.3,1-0.3,1.4v0.1c0.1,1.1,1.1,1.6,1.9,2l0.2,0.1c3.4,1.2,8,1.4,12.2,0.7c5-0.9,7.6-2.5,7.7-4.8
	c0.1-0.6-0.3-1-0.6-1.4c-0.9-1.1-4.1-1.5-7.3-1.9l-2.4-0.3c0,0-0.6-0.1-0.6-0.1c-0.7-0.1-1.1-0.2-1.2-0.6c0.4-0.7,1.2-0.8,2-0.9
	l0.7-0.1c0,0,0.5,0,0.5,0c1.3,0,2.7-0.1,3.7,0.5c0.2,0.2,0.3,0.5,0.3,0.8l0,0.3h6.3l0.1-0.2C230.9,32.4,231.1,31.7,230.8,31.1z
	 M196.3,32.1c0,0-0.5-0.2-0.5-0.2c0,0-0.9-0.2-0.9-0.2c-3-0.3-4.8,0.2-5.8,1.5l-0.1,0.1c0,0-4.6,0-4.9,0c-0.1,0.2-0.8,1.6-0.9,1.8
	c2.4-0.9,5.2-1.1,7.9-1.3c0,0,2.9-0.2,2.9-0.2l0.1,0c0.9-0.1,1.8-0.2,2.2-1c0,0,0.1-0.1,0.1-0.2C196.6,32.4,196.5,32.3,196.3,32.1z
	 M155.8,33.3c0-0.1,0-0.3-0.1-0.4c-0.3-0.7-1.1-1-1.7-1.1c-2.8-0.5-5.3,0.3-6.8,2c1,0,8.1,0,8.4,0C155.7,33.6,155.8,33.5,155.8,33.3
	z M170.5,37.6c-1.4-0.4-3-0.6-4.5-0.7c-1.5-0.2-3.1-0.3-4.6-0.8c-0.1,0.1-0.2,0.4-0.2,0.4h-0.1c0,0-15.2,0-15.2,0
	c-0.5,0-0.6,0.2-0.6,0.7c0,0,0,0.2,0,0.2c0,0.5,0.2,0.9,0.6,1.2c1.3,0.9,5,0.7,7.1-0.3c0.7-0.4,0.9-0.6,0.9-0.7l0.1-0.2l9,0
	l-0.2,0.4c-0.1,0.2-0.1,0.4-0.1,0.6c0.4,0.7,1.3,0.8,2.3,0.9c0,0,0.3,0,0.3,0c3.2,0,5.4-0.4,5.5-1.2c0,0,0-0.1,0-0.1
	c0,0,0-0.1,0-0.1C170.7,37.8,170.6,37.6,170.5,37.6z"/>
</svg>
